<mxfile host="app.diagrams.net" modified="2021-07-22T14:43:47.374Z" agent="5.0 (Windows NT 6.1; Win64; x64) AppleWebKit/537.36 (KHTML, like Gecko) Chrome/92.0.4515.107 Safari/537.36" etag="L9vv19eDZL4-2BZBRhqH" version="14.8.4" type="github">
  <diagram id="bzCBAIMBN1VZn40fcy68" name="Page-1">
    <mxGraphModel dx="981" dy="548" grid="1" gridSize="10" guides="1" tooltips="1" connect="1" arrows="1" fold="1" page="1" pageScale="1" pageWidth="827" pageHeight="1169" math="0" shadow="0">
      <root>
        <mxCell id="0" />
        <mxCell id="1" parent="0" />
        <mxCell id="MNp0rq1lXJXqvAO2WaKr-1" value="SIP" style="rounded=0;whiteSpace=wrap;html=1;" vertex="1" parent="1">
          <mxGeometry x="90" y="640" width="90" height="40" as="geometry" />
        </mxCell>
        <mxCell id="MNp0rq1lXJXqvAO2WaKr-2" value="" style="endArrow=classic;html=1;exitX=1;exitY=0.5;exitDx=0;exitDy=0;entryX=0;entryY=0.5;entryDx=0;entryDy=0;" edge="1" parent="1" source="MNp0rq1lXJXqvAO2WaKr-1" target="MNp0rq1lXJXqvAO2WaKr-5">
          <mxGeometry width="50" height="50" relative="1" as="geometry">
            <mxPoint x="240" y="730" as="sourcePoint" />
            <mxPoint x="260" y="660" as="targetPoint" />
          </mxGeometry>
        </mxCell>
        <mxCell id="MNp0rq1lXJXqvAO2WaKr-4" value="线路接入" style="edgeLabel;html=1;align=center;verticalAlign=middle;resizable=0;points=[];" vertex="1" connectable="0" parent="MNp0rq1lXJXqvAO2WaKr-2">
          <mxGeometry x="0.3881" relative="1" as="geometry">
            <mxPoint x="-16" as="offset" />
          </mxGeometry>
        </mxCell>
        <mxCell id="MNp0rq1lXJXqvAO2WaKr-9" style="edgeStyle=orthogonalEdgeStyle;rounded=0;orthogonalLoop=1;jettySize=auto;html=1;exitX=1;exitY=0.5;exitDx=0;exitDy=0;entryX=0;entryY=0.5;entryDx=0;entryDy=0;" edge="1" parent="1" source="MNp0rq1lXJXqvAO2WaKr-5" target="MNp0rq1lXJXqvAO2WaKr-7">
          <mxGeometry relative="1" as="geometry" />
        </mxCell>
        <mxCell id="MNp0rq1lXJXqvAO2WaKr-26" style="edgeStyle=orthogonalEdgeStyle;rounded=0;orthogonalLoop=1;jettySize=auto;html=1;exitX=0.5;exitY=1;exitDx=0;exitDy=0;entryX=0.5;entryY=0;entryDx=0;entryDy=0;" edge="1" parent="1" source="MNp0rq1lXJXqvAO2WaKr-5" target="MNp0rq1lXJXqvAO2WaKr-25">
          <mxGeometry relative="1" as="geometry" />
        </mxCell>
        <mxCell id="MNp0rq1lXJXqvAO2WaKr-5" value="AIBUS" style="rounded=0;whiteSpace=wrap;html=1;" vertex="1" parent="1">
          <mxGeometry x="260" y="640" width="90" height="40" as="geometry" />
        </mxCell>
        <mxCell id="MNp0rq1lXJXqvAO2WaKr-11" style="edgeStyle=orthogonalEdgeStyle;rounded=0;orthogonalLoop=1;jettySize=auto;html=1;exitX=0.5;exitY=1;exitDx=0;exitDy=0;entryX=0.5;entryY=0;entryDx=0;entryDy=0;" edge="1" parent="1" source="MNp0rq1lXJXqvAO2WaKr-7" target="MNp0rq1lXJXqvAO2WaKr-8">
          <mxGeometry relative="1" as="geometry" />
        </mxCell>
        <mxCell id="MNp0rq1lXJXqvAO2WaKr-13" style="edgeStyle=orthogonalEdgeStyle;rounded=0;orthogonalLoop=1;jettySize=auto;html=1;exitX=1;exitY=0.25;exitDx=0;exitDy=0;entryX=0;entryY=0.5;entryDx=0;entryDy=0;" edge="1" parent="1" source="MNp0rq1lXJXqvAO2WaKr-8" target="MNp0rq1lXJXqvAO2WaKr-14">
          <mxGeometry relative="1" as="geometry">
            <mxPoint x="568" y="669" as="targetPoint" />
          </mxGeometry>
        </mxCell>
        <mxCell id="MNp0rq1lXJXqvAO2WaKr-16" style="edgeStyle=orthogonalEdgeStyle;rounded=0;orthogonalLoop=1;jettySize=auto;html=1;exitX=1;exitY=0.75;exitDx=0;exitDy=0;entryX=0;entryY=0.5;entryDx=0;entryDy=0;" edge="1" parent="1" source="MNp0rq1lXJXqvAO2WaKr-8" target="MNp0rq1lXJXqvAO2WaKr-15">
          <mxGeometry relative="1" as="geometry" />
        </mxCell>
        <mxCell id="MNp0rq1lXJXqvAO2WaKr-7" value="RabbitMQ" style="rounded=0;whiteSpace=wrap;html=1;" vertex="1" parent="1">
          <mxGeometry x="420" y="640" width="70" height="40" as="geometry" />
        </mxCell>
        <mxCell id="MNp0rq1lXJXqvAO2WaKr-8" value="Notifaction" style="rounded=0;whiteSpace=wrap;html=1;" vertex="1" parent="1">
          <mxGeometry x="415" y="730" width="80" height="30" as="geometry" />
        </mxCell>
        <mxCell id="MNp0rq1lXJXqvAO2WaKr-14" value="SMS" style="rounded=0;whiteSpace=wrap;html=1;" vertex="1" parent="1">
          <mxGeometry x="540" y="690" width="70" height="40" as="geometry" />
        </mxCell>
        <mxCell id="MNp0rq1lXJXqvAO2WaKr-15" value="Wechat" style="rounded=0;whiteSpace=wrap;html=1;" vertex="1" parent="1">
          <mxGeometry x="540" y="760" width="70" height="40" as="geometry" />
        </mxCell>
        <mxCell id="MNp0rq1lXJXqvAO2WaKr-21" value="MongoDB" style="rounded=0;whiteSpace=wrap;html=1;" vertex="1" parent="1">
          <mxGeometry x="420" y="800" width="70" height="40" as="geometry" />
        </mxCell>
        <mxCell id="MNp0rq1lXJXqvAO2WaKr-25" value="Dialogue-manage（代码在server项目内）" style="rounded=0;whiteSpace=wrap;html=1;" vertex="1" parent="1">
          <mxGeometry x="260" y="750" width="90" height="60" as="geometry" />
        </mxCell>
        <mxCell id="MNp0rq1lXJXqvAO2WaKr-28" value="查询用户个人配置信息，在AssistantInfoEntity类增加一个标志位，标识用户配置是否开启留言箱" style="shape=note;size=20;whiteSpace=wrap;html=1;fillColor=#FFFFCC;strokeColor=#FFFF99;" vertex="1" parent="1">
          <mxGeometry x="140" y="737.5" width="100" height="102.5" as="geometry" />
        </mxCell>
        <mxCell id="MNp0rq1lXJXqvAO2WaKr-29" value="" style="endArrow=none;dashed=1;html=1;entryX=0;entryY=0.5;entryDx=0;entryDy=0;exitX=1.002;exitY=0.445;exitDx=0;exitDy=0;exitPerimeter=0;" edge="1" parent="1" source="MNp0rq1lXJXqvAO2WaKr-28" target="MNp0rq1lXJXqvAO2WaKr-25">
          <mxGeometry width="50" height="50" relative="1" as="geometry">
            <mxPoint x="290" y="670" as="sourcePoint" />
            <mxPoint x="340" y="620" as="targetPoint" />
          </mxGeometry>
        </mxCell>
        <mxCell id="MNp0rq1lXJXqvAO2WaKr-30" value="控制对话使得被叫在开场白后只听不说" style="shape=note;size=20;whiteSpace=wrap;html=1;fillColor=#FFFFCC;strokeColor=#FFFF99;" vertex="1" parent="1">
          <mxGeometry x="250" y="560" width="90" height="65" as="geometry" />
        </mxCell>
        <mxCell id="MNp0rq1lXJXqvAO2WaKr-31" value="" style="endArrow=none;dashed=1;html=1;dashPattern=1 3;strokeWidth=2;exitX=0.5;exitY=0;exitDx=0;exitDy=0;entryX=0.5;entryY=1;entryDx=0;entryDy=0;entryPerimeter=0;" edge="1" parent="1" source="MNp0rq1lXJXqvAO2WaKr-5" target="MNp0rq1lXJXqvAO2WaKr-30">
          <mxGeometry width="50" height="50" relative="1" as="geometry">
            <mxPoint x="170" y="620" as="sourcePoint" />
            <mxPoint x="220" y="570" as="targetPoint" />
          </mxGeometry>
        </mxCell>
        <mxCell id="MNp0rq1lXJXqvAO2WaKr-35" style="edgeStyle=orthogonalEdgeStyle;rounded=0;orthogonalLoop=1;jettySize=auto;html=1;exitX=0.5;exitY=1;exitDx=0;exitDy=0;entryX=0.5;entryY=0;entryDx=0;entryDy=0;" edge="1" parent="1" source="MNp0rq1lXJXqvAO2WaKr-8" target="MNp0rq1lXJXqvAO2WaKr-21">
          <mxGeometry relative="1" as="geometry">
            <mxPoint x="465" y="690" as="sourcePoint" />
            <mxPoint x="465" y="740" as="targetPoint" />
          </mxGeometry>
        </mxCell>
        <mxCell id="MNp0rq1lXJXqvAO2WaKr-36" value="通话记录入库，此处增加标识通话记录是否为留言箱留言的字段" style="shape=note;size=20;whiteSpace=wrap;html=1;fillColor=#FFFFCC;strokeColor=#FFFF99;" vertex="1" parent="1">
          <mxGeometry x="320" y="820" width="90" height="65" as="geometry" />
        </mxCell>
        <mxCell id="MNp0rq1lXJXqvAO2WaKr-37" value="" style="endArrow=none;dashed=1;html=1;exitX=0;exitY=0;exitDx=90;exitDy=20;exitPerimeter=0;" edge="1" parent="1" source="MNp0rq1lXJXqvAO2WaKr-36">
          <mxGeometry width="50" height="50" relative="1" as="geometry">
            <mxPoint x="250.18000000000006" y="776.425" as="sourcePoint" />
            <mxPoint x="450" y="780" as="targetPoint" />
          </mxGeometry>
        </mxCell>
      </root>
    </mxGraphModel>
  </diagram>
</mxfile>
